<?xml version="1.0" encoding="UTF-8" standalone="no"?>
<!-- Uploaded to: SVG Repo, www.svgrepo.com, Generator: SVG Repo Mixer Tools -->

<svg
   fill="#000000"
   width="800px"
   height="800px"
   viewBox="0 0 32 32"
   version="1.1"
   id="svg5"
   sodipodi:docname="expo.svg"
   inkscape:version="1.2.2 (b0a8486541, 2022-12-01)"
   xmlns:inkscape="http://www.inkscape.org/namespaces/inkscape"
   xmlns:sodipodi="http://sodipodi.sourceforge.net/DTD/sodipodi-0.dtd"
   xmlns="http://www.w3.org/2000/svg"
   xmlns:svg="http://www.w3.org/2000/svg">
  <defs
     id="defs9" />
  <sodipodi:namedview
     id="namedview7"
     pagecolor="#ffffff"
     bordercolor="#000000"
     borderopacity="0.25"
     inkscape:showpageshadow="2"
     inkscape:pageopacity="0.0"
     inkscape:pagecheckerboard="0"
     inkscape:deskcolor="#d1d1d1"
     showgrid="false"
     inkscape:zoom="0.37211494"
     inkscape:cx="37.622784"
     inkscape:cy="532.09365"
     inkscape:window-width="1920"
     inkscape:window-height="1012"
     inkscape:window-x="0"
     inkscape:window-y="32"
     inkscape:window-maximized="1"
     inkscape:current-layer="svg5" />
  <g
     id="g904"
     transform="matrix(0.68726561,0,0,0.68726561,5.0037502,5.0037502)">
    <rect
       style="fill:#00ffff;stroke:#000000;stroke-width:0.383483"
       id="rect414"
       width="19.842512"
       height="19.918882"
       x="3.9677007"
       y="8.1843634"
       ry="0.019780919" />
    <rect
       style="fill:#00ffff;stroke:#000000;stroke-width:0.31928"
       id="rect292"
       width="16.6408"
       height="16.46414"
       x="11.672441"
       y="3.5724814"
       ry="0.016350105" />
    <g
       id="Group_32"
       data-name="Group 32"
       transform="translate(-166,-321.048)">
      <path
         id="Path_313"
         data-name="Path 313"
         d="m 178,345.048 h 16 a 4,4 0 0 0 4,-4 v -16 a 4,4 0 0 0 -4,-4 h -16 a 4,4 0 0 0 -4,4 v 20 z m 16,-4 h -16 v -16 h 16 z" />
      <path
         id="Path_314"
         data-name="Path 314"
         d="m 186,349.048 h -16 v -20 a 4,4 0 0 0 -4,4 v 16 a 4,4 0 0 0 4,4 h 16 a 4,4 0 0 0 4,-4" />
    </g>
  </g>
</svg>
