<?xml version="1.0" encoding="UTF-8" standalone="no"?>
<!-- Uploaded to: SVG Repo, www.svgrepo.com, Generator: SVG Repo Mixer Tools -->

<svg
   height="800px"
   width="800px"
   version="1.1"
   id="Layer_1"
   viewBox="0 0 512 512"
   xml:space="preserve"
   sodipodi:docname="mouse-svgrepo-com.svg"
   inkscape:version="1.2.2 (b0a8486541, 2022-12-01)"
   xmlns:inkscape="http://www.inkscape.org/namespaces/inkscape"
   xmlns:sodipodi="http://sodipodi.sourceforge.net/DTD/sodipodi-0.dtd"
   xmlns="http://www.w3.org/2000/svg"
   xmlns:svg="http://www.w3.org/2000/svg"><defs
   id="defs19" /><sodipodi:namedview
   id="namedview17"
   pagecolor="#ffffff"
   bordercolor="#000000"
   borderopacity="0.25"
   inkscape:showpageshadow="2"
   inkscape:pageopacity="0.0"
   inkscape:pagecheckerboard="0"
   inkscape:deskcolor="#d1d1d1"
   showgrid="false"
   inkscape:zoom="0.52625"
   inkscape:cx="279.33492"
   inkscape:cy="444.65558"
   inkscape:window-width="1920"
   inkscape:window-height="1044"
   inkscape:window-x="1920"
   inkscape:window-y="0"
   inkscape:window-maximized="1"
   inkscape:current-layer="Layer_1" />






<g
   id="g205"
   transform="matrix(-1,0,0,1,511.9995,-5e-4)"><path
     style="fill:#ff8c78"
     d="M 332.96,503.983 H 230.347 c -37.781,0 -68.409,-30.628 -68.409,-68.409 V 264.551 c 0,-56.672 45.942,-102.614 102.614,-102.614 h 34.205 c 56.672,0 102.614,45.942 102.614,102.614 v 171.023 c -10e-4,37.781 -30.63,68.409 -68.411,68.409 z"
     id="path2" /><path
     style="fill:#df7a6e"
     d="M 204.693,435.574 V 264.551 c 0,-55.239 43.65,-100.276 98.338,-102.519 -1.418,-0.059 -2.842,-0.095 -4.276,-0.095 H 264.55 c -56.672,0 -102.614,45.942 -102.614,102.614 v 171.023 c 0,37.781 30.628,68.409 68.409,68.409 h 42.756 c -37.78,0 -68.408,-30.628 -68.408,-68.409 z"
     id="path4" /><path
     style="fill:#ffc44f"
     d="m 281.653,264.551 v 0 c -9.446,0 -17.102,-7.656 -17.102,-17.102 v -34.205 c 0,-9.446 7.656,-17.102 17.102,-17.102 v 0 c 9.446,0 17.102,7.656 17.102,17.102 v 34.205 c 10e-4,9.446 -7.656,17.102 -17.102,17.102 z"
     id="path6" /><path
     d="m 298.756,153.921 h -9.086 v -26.188 c 0,-14.441 11.748,-26.188 26.188,-26.188 h 34.205 c 23.28,0 42.221,-18.941 42.221,-42.221 V 8.017 C 392.284,3.589 388.695,0 384.267,0 379.84,0 376.25,3.588 376.25,8.017 v 51.307 c 0,14.441 -11.748,26.188 -26.188,26.188 h -34.205 c -23.28,0 -42.221,18.941 -42.221,42.221 v 26.188 h -9.086 c -61.002,0 -110.63,49.629 -110.63,110.63 v 94.063 c 0,4.428 3.589,8.017 8.017,8.017 4.428,0 8.017,-3.588 8.017,-8.017 v -51.841 h 154.455 c 4.427,0 8.017,-3.588 8.017,-8.017 0,-4.429 -3.589,-8.017 -8.017,-8.017 H 289.67 v -19.49 c 9.93,-3.354 17.102,-12.752 17.102,-23.8 v -34.205 c 0,-11.048 -7.172,-20.446 -17.102,-23.8 v -19.49 h 9.086 c 52.161,0 94.597,42.436 94.597,94.597 v 26.188 h -26.188 c -4.427,0 -8.017,3.588 -8.017,8.017 0,4.429 3.589,8.017 8.017,8.017 h 26.188 v 128.802 c 0,33.3 -27.092,60.392 -60.392,60.392 H 230.347 c -33.3,0 -60.392,-27.092 -60.392,-60.392 V 401.37 c 0,-4.428 -3.589,-8.017 -8.017,-8.017 -4.428,0 -8.017,3.588 -8.017,8.017 v 34.205 c 0,42.141 34.285,76.426 76.426,76.426 H 332.96 c 42.141,0 76.426,-34.285 76.426,-76.426 V 264.551 c 0,-61.002 -49.628,-110.63 -110.63,-110.63 z m -8.017,93.528 c 0,5.01 -4.076,9.086 -9.086,9.086 -5.01,0 -9.086,-4.076 -9.086,-9.086 v -34.205 c 0,-5.01 4.076,-9.086 9.086,-9.086 5.01,0 9.086,4.076 9.086,9.086 z m -17.102,-58.005 c -9.93,3.354 -17.102,12.752 -17.102,23.8 v 34.205 c 0,11.048 7.172,20.446 17.102,23.8 v 19.49 H 169.954 v -26.188 c 0,-52.161 42.436,-94.597 94.597,-94.597 h 9.086 z"
     id="path8" /><path
     d="m 133.401,113.512 c -3.131,-3.13 -8.207,-3.13 -11.337,0 -3.131,3.132 -3.131,8.207 0,11.338 l 17.102,17.102 c 3.26,3.259 8.766,3.041 11.763,-0.461 2.687,-3.138 2.493,-7.959 -0.426,-10.878 z"
     id="path10" /><path
     d="m 179.04,135.749 c 4.427,0 8.017,-3.588 8.017,-8.017 v -25.653 c 0,-4.428 -3.589,-8.017 -8.017,-8.017 -4.428,0 -8.017,3.588 -8.017,8.017 v 25.653 c 0,4.429 3.589,8.017 8.017,8.017 z"
     id="path12" /><path
     d="M 136.284,162.472 H 110.63 c -4.427,0 -8.017,3.588 -8.017,8.017 0,4.428 3.589,8.017 8.017,8.017 h 25.653 c 4.427,0 8.017,-3.588 8.017,-8.017 10e-4,-4.429 -3.589,-8.017 -8.016,-8.017 z"
     id="path14" /></g>
</svg>
