<?xml version="1.0" encoding="UTF-8" standalone="no"?>
<!-- Uploaded to: SVG Repo, www.svgrepo.com, Generator: SVG Repo Mixer Tools -->

<svg
   width="800px"
   height="800px"
   viewBox="0 0 128 128"
   aria-hidden="true"
   role="img"
   class="iconify iconify--noto"
   preserveAspectRatio="xMidYMid meet"
   version="1.1"
   id="svg21"
   sodipodi:docname="xkill.svg"
   inkscape:version="1.2.2 (b0a8486541, 2022-12-01)"
   xmlns:inkscape="http://www.inkscape.org/namespaces/inkscape"
   xmlns:sodipodi="http://sodipodi.sourceforge.net/DTD/sodipodi-0.dtd"
   xmlns="http://www.w3.org/2000/svg"
   xmlns:svg="http://www.w3.org/2000/svg">
  <defs
     id="defs25" />
  <sodipodi:namedview
     id="namedview23"
     pagecolor="#ffffff"
     bordercolor="#000000"
     borderopacity="0.25"
     inkscape:showpageshadow="2"
     inkscape:pageopacity="0.0"
     inkscape:pagecheckerboard="0"
     inkscape:deskcolor="#d1d1d1"
     showgrid="false"
     inkscape:zoom="0.98125"
     inkscape:cx="399.49045"
     inkscape:cy="401.01911"
     inkscape:window-width="1920"
     inkscape:window-height="1011"
     inkscape:window-x="0"
     inkscape:window-y="0"
     inkscape:window-maximized="1"
     inkscape:current-layer="svg21" />
  <radialGradient
     id="IconifyId17ecdb2904d178eab20356"
     cx="63.887"
     cy="74.925"
     r="64.936"
     gradientTransform="matrix(1,0,0,1.0839,0,-6.29)"
     gradientUnits="userSpaceOnUse">
    <stop
       offset=".396"
       stop-color="#e1e7ea"
       id="stop2" />
    <stop
       offset=".993"
       stop-color="#d6e1e6"
       id="stop4" />
  </radialGradient>
  <path
     d="m 111.79,67.58 c 0.57,-3.41 2.93,-15.55 0.78,-27.47 C 111.2,32.52 106.46,22.61 101.17,17.6 90.96,7.93 76.74,4 63.66,4 50.58,4 37.07,7.93 26.86,17.6 c -5.29,5.01 -10.03,14.93 -11.4,22.51 -2.15,11.92 0.21,24.06 0.78,27.47 0.77,4.65 -1.27,9.79 -1.67,14.42 -0.43,5.04 1.95,8.95 6.21,11.72 3.55,2.31 7.69,3.53 11.53,5.32 4.57,2.13 0.42,9.82 2.11,13.7 0.85,1.96 2.71,3.31 4.63,4.26 2.44,1.22 5.25,1.98 7.9,1.31 -0.4,0.1 0.76,2.43 2.29,3.38 1.4,0.86 3.13,1.74 4.74,2.09 3.2,0.7 6.37,-0.48 8.35,-1.5 a 3.67,3.67 0 0 1 3.41,0 c 1.98,1.02 5.15,2.2 8.35,1.5 2.41,-0.53 4.56,-1.96 6.1,-3.83 0.72,-0.88 1.84,-1.36 2.97,-1.28 3.36,0.22 8.5,-1.15 10.73,-6.22 1.25,-2.82 -0.01,-6.14 0.82,-9.09 1.41,-5 6.33,-6.24 10.29,-8.57 5.25,-3.08 8.35,-6.53 8.49,-11.39 0.14,-5.16 -2.36,-11.83 -1.7,-15.82 z"
     fill="url(#IconifyId17ecdb2904d178eab20356)"
     id="path7"
     style="fill:url(#IconifyId17ecdb2904d178eab20356)" />
  <ellipse
     transform="rotate(-75.001 39.832 64.151)"
     cx="39.83"
     cy="64.15"
     rx="13.74"
     ry="12.49"
     fill="#424242"
     id="ellipse9" />
  <ellipse
     transform="rotate(-14.999 88.202 64.154)"
     cx="88.2"
     cy="64.15"
     rx="12.49"
     ry="13.74"
     fill="#424242"
     id="ellipse11" />
  <path
     d="M55.98 86.71c0-4.43 3.59-15.41 8.03-15.41s8.03 10.97 8.03 15.41c0 9.01-8.03 2.87-8.03 2.87s-8.03 6.66-8.03-2.87z"
     fill="#424242"
     id="path13" />
  <path
     d="M42.63 118.43c-1.2-.23-2.34-.6-3.36-1.35c.85-.2 1.7-.42 2.48-.8c1.94-.97 1.89-2.53 2.32-4.45c.37-1.68.73-3.36 1.16-5.03c.29-1.12 1.03-2.19 2.18-2.03c1.44.2 1.58 1.22 1.34 2.77c-.23 1.44-1.97 10.93-1.97 10.94c-.08.43-2.97.14-3.25.1c-.3-.04-.6-.09-.9-.15z"
     fill="#8abfd1"
     id="path15" />
  <path
     d="M86.04 118.43c1.2-.23 2.34-.6 3.36-1.35c-.85-.2-1.7-.42-2.48-.8c-1.94-.97-1.89-2.53-2.32-4.45c-.37-1.68-.73-3.36-1.16-5.03c-.29-1.12-1.03-2.19-2.18-2.03c-1.44.2-1.58 1.22-1.34 2.77c.23 1.44 1.97 10.93 1.97 10.94c.08.43 2.97.14 3.25.1c.3-.04.6-.09.9-.15z"
     fill="#8abfd1"
     id="path17" />
  <path
     d="M59.47 123.45s2.27-3.06 2.35-5.15c.15-3.73.36-8.77.36-11.69c0-1.16.7-2.05 1.87-2.05c1.16 0 1.81.78 1.81 1.94c0 .05.27 6.83.27 11.55c0 2.18 2.44 5.39 2.44 5.39c-1-.45-2.75-1.32-4.55-1.24c-2.28.11-4.55 1.25-4.55 1.25z"
     fill="#8abfd1"
     id="path19" />
</svg>
